<?xml version="1.0" standalone="no"?>
<!DOCTYPE svg PUBLIC "-//W3C//DTD SVG 20010904//EN"
 "http://www.w3.org/TR/2001/REC-SVG-20010904/DTD/svg10.dtd">
<svg version="1.0" xmlns="http://www.w3.org/2000/svg"
 width="225.000000pt" height="225.000000pt" viewBox="0 0 225.000000 225.000000"
 preserveAspectRatio="xMidYMid meet">

<g transform="translate(0.000000,225.000000) scale(0.100000,-0.100000)"
fill="#000000" stroke="none">
<path d="M35 2208 c-3 -7 -4 -499 -3 -1093 l3 -1080 1090 0 1090 0 0 1090 0
1090 -1088 3 c-865 2 -1089 0 -1092 -10z m1299 -644 c10 -26 7 -69 -6 -87 -7
-9 -31 -18 -53 -19 -40 -4 -35 -11 16 -22 100 -22 165 -145 128 -243 -36 -96
-167 -149 -267 -108 -144 61 -163 244 -34 326 25 16 56 29 68 29 13 0 26 5 29
10 4 6 -8 10 -29 10 -43 0 -66 22 -66 64 0 49 14 56 116 56 75 0 93 -3 98 -16z
m-249 -115 c-4 -6 -52 -9 -128 -8 l-122 1 0 -183 0 -184 130 -5 c72 -3 126 -8
120 -11 -5 -4 -67 -7 -137 -8 l-128 -1 0 205 0 205 136 0 c92 0 133 -3 129
-11z m-491 -562 c23 -17 17 -49 -12 -62 -12 -5 -22 -18 -22 -27 0 -10 -7 -18
-15 -18 -11 0 -15 13 -15 53 0 30 3 57 7 60 10 11 38 8 57 -6z m66 -18 c0 -27
38 -26 42 1 6 41 23 19 26 -35 2 -44 0 -55 -13 -55 -9 0 -15 9 -15 25 0 18 -5
25 -20 25 -15 0 -20 -7 -20 -26 0 -16 -5 -24 -12 -22 -14 5 -23 80 -14 105 8
19 26 7 26 -18z m182 14 c38 -34 13 -103 -37 -103 -53 0 -76 74 -33 104 29 20
47 20 70 -1z m113 6 c4 -6 -2 -13 -13 -16 -17 -4 -20 -12 -19 -46 1 -24 -3
-42 -10 -44 -9 -3 -13 9 -13 41 0 32 -5 48 -15 52 -8 4 -15 10 -15 15 0 13 77
11 85 -2z m99 -5 c19 -18 21 -75 4 -92 -20 -20 -65 -14 -82 10 -21 30 -20 54
4 78 24 24 53 26 74 4z m144 -3 c3 -10 0 -12 -11 -8 -24 9 -30 -9 -9 -25 28
-20 35 -37 22 -53 -14 -17 -70 -20 -70 -5 0 6 11 10 25 10 14 0 25 4 25 9 0 5
-11 16 -25 25 -28 18 -32 35 -13 54 16 16 50 11 56 -7z m102 10 c0 -5 -7 -11
-15 -15 -10 -4 -15 -20 -15 -51 0 -25 -4 -45 -10 -45 -5 0 -10 20 -10 45 0 33
-4 45 -15 45 -8 0 -15 7 -15 15 0 11 11 15 40 15 22 0 40 -4 40 -9z m44 -40
c4 -48 9 -56 31 -48 10 5 15 20 15 52 0 25 5 45 10 45 14 0 12 -94 -2 -108 -7
-7 -21 -12 -33 -12 -12 0 -26 5 -33 12 -13 13 -17 90 -5 101 10 11 14 2 17
-42z m183 22 c30 -40 -3 -93 -57 -93 l-30 0 0 61 0 62 37 -6 c21 -4 44 -14 50
-24z m55 10 c5 -29 -4 -103 -13 -103 -5 0 -9 27 -9 60 0 55 14 83 22 43z m118
-3 c51 -51 -6 -124 -71 -90 -13 7 -19 21 -19 45 0 60 50 85 90 45z m-930 -163
c0 -7 -9 -18 -20 -25 -17 -10 -20 -10 -20 4 0 8 4 13 9 9 5 -3 12 -1 15 4 4 5
-2 12 -11 14 -14 4 -13 5 5 6 12 0 22 -5 22 -12z m79 -19 c-1 -18 -3 -25 -6
-15 -2 9 -9 17 -14 17 -5 0 -4 7 3 15 18 20 18 19 17 -17z m43 7 c-3 -18 0
-25 12 -25 9 0 16 5 16 10 0 6 5 10 11 10 8 0 8 -5 -1 -15 -7 -8 -21 -15 -31
-15 -14 0 -19 7 -19 30 0 17 4 30 9 30 4 0 6 -11 3 -25z m43 15 c3 -5 1 -10
-4 -10 -6 0 -11 5 -11 10 0 6 2 10 4 10 3 0 8 -4 11 -10z m47 -20 c-2 -16 -6
-30 -8 -30 -2 0 -4 14 -4 30 0 17 4 30 8 30 5 0 7 -13 4 -30z m51 9 c-4 -12 0
-25 8 -31 12 -8 11 -9 -1 -5 -17 4 -27 57 -12 57 6 0 8 -9 5 -21z m47 -9 c0
-10 -3 -21 -7 -23 -5 -3 -8 8 -8 23 0 15 3 26 8 23 4 -2 7 -13 7 -23z m43 19
c-14 -14 -6 -39 12 -39 7 0 16 6 18 13 3 7 6 5 6 -5 1 -23 -44 -25 -53 -3 -7
19 3 45 17 45 8 0 8 -3 0 -11z m74 -36 c-3 -10 -5 -2 -5 17 0 19 2 27 5 18 2
-10 2 -26 0 -35z m31 17 c-1 -16 -5 -27 -9 -24 -10 6 -8 54 3 54 3 0 6 -13 6
-30z m71 -1 c9 -27 9 -30 -4 -19 -12 10 -18 10 -30 0 -13 -11 -13 -8 -4 19 6
17 15 31 19 31 4 0 13 -14 19 -31z m70 14 c0 -11 -3 -13 -6 -5 -2 6 -9 12 -15
12 -6 0 -8 -7 -5 -15 4 -8 2 -17 -3 -20 -6 -4 -10 5 -10 19 0 19 5 26 20 26
13 0 20 -6 19 -17z m44 4 c3 -8 1 -20 -4 -28 -6 -10 -9 -7 -9 14 0 29 5 35 13
14z m36 -19 c0 -27 -2 -29 -8 -13 -5 11 -6 26 -4 33 8 21 13 13 12 -20z m-642
-8 c-1 -21 -10 -18 -13 5 -1 8 2 15 6 15 5 0 8 -9 7 -20z m696 0 c-3 -11 -7
-20 -8 -20 -1 0 -5 9 -8 20 -3 12 0 20 8 20 8 0 11 -8 8 -20z"/>
<path d="M1144 1556 c-3 -8 -4 -27 -2 -43 l3 -28 88 -3 88 -3 -3 43 -3 43 -83
3 c-65 2 -84 0 -88 -12z"/>
<path d="M1150 1398 c-24 -13 -53 -35 -64 -50 -20 -29 -35 -131 -19 -141 4 -3
7 12 5 33 -8 84 68 162 157 162 97 0 156 -58 156 -154 0 -34 4 -53 9 -48 14
14 10 94 -7 126 -44 86 -148 117 -237 72z"/>
<path d="M1175 1295 c-31 -30 -32 -66 -2 -101 17 -20 33 -27 57 -27 39 0 80
40 80 79 0 35 -42 74 -80 74 -19 0 -40 -9 -55 -25z"/>
<path d="M560 859 c0 -12 5 -19 12 -17 18 6 20 25 3 31 -10 5 -15 0 -15 -14z"/>
<path d="M793 873 c-19 -7 -16 -62 3 -70 23 -9 45 23 35 50 -9 23 -19 28 -38
20z"/>
<path d="M994 854 c-8 -33 2 -54 25 -54 24 0 40 45 22 63 -20 20 -41 16 -47
-9z"/>
<path d="M1470 840 c0 -43 0 -43 24 -34 23 9 20 51 -4 64 -18 10 -20 8 -20
-30z"/>
<path d="M1640 860 c-16 -30 -3 -62 23 -58 25 3 35 41 17 64 -17 19 -27 18
-40 -6z"/>
</g>
</svg>
